<svg xmlns="http://www.w3.org/2000/svg" width="221.682" height="53.532" viewBox="0 0 221.682 53.532">
  <g id="Grupo_1" data-name="Grupo 1" transform="translate(-41.545 -32.134)">
    <path id="Caminho_1" data-name="Caminho 1" d="M57.582,78.459a3.85,3.85,0,0,0-1.68-.535,3.421,3.421,0,0,0-1.833.382,2.951,2.951,0,0,1-1.871.152,3.687,3.687,0,0,1-1.756-1.031,5.773,5.773,0,0,1-1.3-2.253,10.911,10.911,0,0,1-.5-3.513V54.556h6.089a3.542,3.542,0,0,0,2.558-.992,3.345,3.345,0,0,0,1.031-2.52,3.382,3.382,0,0,0-1.031-2.482,3.673,3.673,0,0,0-2.482-1.108H48.647V32.182h-7.1V72.655a15.6,15.6,0,0,0,.993,5.689,12.272,12.272,0,0,0,2.749,4.314,10.106,10.106,0,0,0,4.162,2.52,11.475,11.475,0,0,0,5.307.306,6.982,6.982,0,0,0,3.131-1.26,3.249,3.249,0,0,0,1.451-2.788,3.15,3.15,0,0,0-.5-1.756A3.874,3.874,0,0,0,57.582,78.459Z" transform="translate(0 -0.019)" fill="#fff"/>
    <path id="Caminho_2" data-name="Caminho 2" d="M167.685,83.637a3.45,3.45,0,0,0-2.52,1.069,11.748,11.748,0,0,1-3.932,2.6,12.032,12.032,0,0,1-4.773,1.069,12.265,12.265,0,0,1-5.155-1.031,11.47,11.47,0,0,1-6.147-6.491,12.294,12.294,0,0,1,0-8.935,11.47,11.47,0,0,1,6.147-6.491,12.255,12.255,0,0,1,5.155-1.031,12.7,12.7,0,0,1,4.7.955,12.341,12.341,0,0,1,4.009,2.482,3.124,3.124,0,0,0,2.482,1.031,3.37,3.37,0,0,0,2.482-1.108A3.205,3.205,0,0,0,171.2,65.31a3.454,3.454,0,0,0-1.069-2.52,18.462,18.462,0,0,0-6.148-4.085,20,20,0,0,0-7.6-1.413,19.175,19.175,0,0,0-13.593,5.575,19.171,19.171,0,0,0-4.086,6.071,19.362,19.362,0,0,0,0,14.891,19.105,19.105,0,0,0,17.678,11.646,20.186,20.186,0,0,0,7.637-1.451,16.893,16.893,0,0,0,6.185-4.277,3.172,3.172,0,0,0,1.031-2.52,3.42,3.42,0,0,0-1.107-2.52A3.208,3.208,0,0,0,167.685,83.637Z" transform="translate(-37.865 -9.957)" fill="#fff"/>
    <path id="Caminho_3" data-name="Caminho 3" d="M225.561,60.881a3.522,3.522,0,0,0-3.589-3.589,19.178,19.178,0,0,0-8.439,2.024A19.424,19.424,0,0,0,207,64.623V57.292h-7.1v34.67a3.4,3.4,0,0,0,3.512,3.512,3.542,3.542,0,0,0,2.558-.993A3.345,3.345,0,0,0,207,91.962V78.216a11.66,11.66,0,0,1,1.184-5.078,15.165,15.165,0,0,1,3.207-4.429,15.977,15.977,0,0,1,4.735-3.131,14.437,14.437,0,0,1,5.842-1.184,3.546,3.546,0,0,0,2.558-.992A3.346,3.346,0,0,0,225.561,60.881Z" transform="translate(-62.675 -9.957)" fill="#fff"/>
    <path id="Caminho_4" data-name="Caminho 4" d="M382.5,39.284a3.544,3.544,0,0,0,2.558-.993,3.348,3.348,0,0,0,1.031-2.52,3.522,3.522,0,0,0-3.589-3.589,3.346,3.346,0,0,0-2.52,1.031,3.543,3.543,0,0,0-.993,2.558,3.4,3.4,0,0,0,3.513,3.513Z" transform="translate(-133.553 -0.019)" fill="#fff"/>
    <path id="Caminho_5" data-name="Caminho 5" d="M396.284,89.685a3.841,3.841,0,0,0-2.94-1.757,3.419,3.419,0,0,0-1.833.382,2.953,2.953,0,0,1-1.871.152,3.685,3.685,0,0,1-1.756-1.031,5.773,5.773,0,0,1-1.3-2.253,10.9,10.9,0,0,1-.5-3.513V57.459h-7.1v25.2a15.6,15.6,0,0,0,.993,5.689,12.278,12.278,0,0,0,2.749,4.314,10.112,10.112,0,0,0,4.162,2.52,11.472,11.472,0,0,0,5.307.306,6.979,6.979,0,0,0,3.131-1.26,3.247,3.247,0,0,0,1.451-2.788A3.154,3.154,0,0,0,396.284,89.685Z" transform="translate(-133.553 -10.023)" fill="#fff"/>
    <path id="Caminho_6" data-name="Caminho 6" d="M102.222,63.113A19.082,19.082,0,0,0,96.13,58.88,18.831,18.831,0,0,0,88.5,57.287c-.387,0-.77.018-1.15.04-.19.011-.377.027-.566.043-.088.008-.178.013-.266.022A18.643,18.643,0,0,0,81,58.779,18.971,18.971,0,0,0,70.806,68.935a19.355,19.355,0,0,0,0,14.891A19.105,19.105,0,0,0,88.485,95.472a20.186,20.186,0,0,0,7.637-1.451,16.893,16.893,0,0,0,6.185-4.277,3.172,3.172,0,0,0,1.031-2.52,3.42,3.42,0,0,0-1.107-2.52,3.208,3.208,0,0,0-2.444-1.069,3.449,3.449,0,0,0-2.52,1.069,11.745,11.745,0,0,1-3.933,2.6,12.03,12.03,0,0,1-4.772,1.069,12.263,12.263,0,0,1-5.155-1.031,11.468,11.468,0,0,1-6.147-6.491,12.762,12.762,0,0,1-.407-1.265l27-.016a4.484,4.484,0,0,0,1.5-.169,2.679,2.679,0,0,0,1.282-.855,3.276,3.276,0,0,0,1.031-2.5,18.029,18.029,0,0,0-1.468-6.916A19.881,19.881,0,0,0,102.222,63.113Zm-6.481,9.341q-2.927.043-6.353.034T82.5,72.464q-3.466-.015-6.057-.048A8.3,8.3,0,0,1,78.1,69.174a12.393,12.393,0,0,1,2.855-2.543,14.254,14.254,0,0,1,3.62-1.677,12.731,12.731,0,0,1,3.929-.574,10.759,10.759,0,0,1,4.727.93,14.823,14.823,0,0,1,3.629,2.3A12.175,12.175,0,0,1,99.2,70.3a5.264,5.264,0,0,1,.889,2.079Q98.667,72.413,95.741,72.454Z" transform="translate(-10.992 -9.955)" fill="#fff"/>
    <path id="Caminho_7" data-name="Caminho 7" d="M271.619,63.113a19.083,19.083,0,0,0-6.092-4.233,18.831,18.831,0,0,0-7.633-1.593c-.387,0-.77.018-1.15.04-.19.011-.378.027-.566.043-.088.008-.178.013-.266.022a18.643,18.643,0,0,0-5.515,1.387,18.975,18.975,0,0,0-10.2,10.156,19.362,19.362,0,0,0,0,14.891,18.973,18.973,0,0,0,10.2,10.157,18.972,18.972,0,0,0,7.484,1.489,20.181,20.181,0,0,0,7.636-1.451,16.89,16.89,0,0,0,6.186-4.277,3.176,3.176,0,0,0,1.031-2.52,3.42,3.42,0,0,0-1.107-2.52,3.207,3.207,0,0,0-2.443-1.069,3.448,3.448,0,0,0-2.52,1.069,11.757,11.757,0,0,1-3.933,2.6,12.032,12.032,0,0,1-4.773,1.069,12.26,12.26,0,0,1-5.155-1.031,11.468,11.468,0,0,1-6.147-6.491,12.763,12.763,0,0,1-.408-1.265l27.005-.016a4.484,4.484,0,0,0,1.5-.169,2.675,2.675,0,0,0,1.282-.855,3.273,3.273,0,0,0,1.031-2.5,18.027,18.027,0,0,0-1.467-6.916A19.891,19.891,0,0,0,271.619,63.113Zm-6.482,9.341q-2.927.043-6.353.034t-6.89-.024q-3.465-.015-6.056-.048a8.3,8.3,0,0,1,1.655-3.242,12.393,12.393,0,0,1,2.855-2.543,14.254,14.254,0,0,1,3.62-1.677,12.728,12.728,0,0,1,3.929-.574,10.761,10.761,0,0,1,4.727.93,14.82,14.82,0,0,1,3.628,2.3A12.182,12.182,0,0,1,268.6,70.3a5.261,5.261,0,0,1,.888,2.079Q268.063,72.413,265.137,72.454Z" transform="translate(-78.035 -9.955)" fill="#fff"/>
    <path id="Caminho_8" data-name="Caminho 8" d="M337.445,32.134v20.16a16.565,16.565,0,0,0-4.468-3.284,13.667,13.667,0,0,0-6.529-1.527,19.254,19.254,0,0,0-7.522,1.489,20.332,20.332,0,0,0-6.262,4.086,19.271,19.271,0,0,0-4.276,6.071,18.487,18.487,0,0,0,0,14.891,19.246,19.246,0,0,0,4.276,6.071,20.321,20.321,0,0,0,6.262,4.086,19.254,19.254,0,0,0,7.522,1.489,13.16,13.16,0,0,0,3.4-.458,13.956,13.956,0,0,0,5.765-3.093,10.472,10.472,0,0,0,1.833-2.1v2.1a3.551,3.551,0,1,0,7.1,0V32.134Zm0,34.975a11.506,11.506,0,0,1-.8,4.2,11.768,11.768,0,0,1-2.253,3.665,11.4,11.4,0,0,1-3.475,2.6,9.993,9.993,0,0,1-4.468.993,12.1,12.1,0,0,1-4.773-.954,13.459,13.459,0,0,1-3.97-2.558,12.337,12.337,0,0,1-2.749-3.78,11.209,11.209,0,0,1,0-9.393,12.337,12.337,0,0,1,2.749-3.78,13.483,13.483,0,0,1,3.97-2.558,12.117,12.117,0,0,1,4.773-.955,10.8,10.8,0,0,1,7.98,3.322,11.327,11.327,0,0,1,2.215,3.36,9.534,9.534,0,0,1,.8,3.78Z" transform="translate(-104.992)" fill="#fff"/>
  </g>
</svg>
